HIERARCHY
ROOT Hips
{
	OFFSET -0.001795 -0.223333 0.028219
	CHANNELS 6 Xposition Yposition Zposition Zrotation Yrotation Xrotation 
	JOINT LeftUpLeg
	{
		OFFSET 0.069520 -0.091406 -0.006815
		CHANNELS 3 Zrotation Yrotation Xrotation
		JOINT LeftLeg
		{
			OFFSET 0.034277 -0.375199 -0.004496
			CHANNELS 3 Zrotation Yrotation Xrotation
			JOINT LeftFoot
			{
				OFFSET -0.013596 -0.397961 -0.043693
				CHANNELS 3 Zrotation Yrotation Xrotation
				JOINT LeftToe
				{
					OFFSET 0.026358 -0.055791 0.119288
					CHANNELS 3 Zrotation Yrotation Xrotation
					End Site
					{
						OFFSET 0.000000 0.000000 0.000000
					}
				}
			}
		}
	}
	JOINT RightUpLeg
	{
		OFFSET -0.067670 -0.090522 -0.004320
		CHANNELS 3 Zrotation Yrotation Xrotation
		JOINT RightLeg
		{
			OFFSET -0.038290 -0.382569 -0.008850
			CHANNELS 3 Zrotation Yrotation Xrotation
			JOINT RightFoot
			{
				OFFSET 0.015774 -0.398415 -0.042312
				CHANNELS 3 Zrotation Yrotation Xrotation
				JOINT RightToe
				{
					OFFSET -0.025372 -0.048144 0.123348
					CHANNELS 3 Zrotation Yrotation Xrotation
					End Site
					{
						OFFSET 0.000000 0.000000 0.000000
					}
				}
			}
		}
	}
	JOINT Spine
	{
		OFFSET -0.002533 0.108963 -0.026696
		CHANNELS 3 Zrotation Yrotation Xrotation
		JOINT Spine1
		{
			OFFSET 0.005487 0.135180 0.001092
			CHANNELS 3 Zrotation Yrotation Xrotation
			JOINT Spine2
			{
				OFFSET 0.001457 0.052922 0.025425
				CHANNELS 3 Zrotation Yrotation Xrotation
				JOINT Neck
				{
					OFFSET -0.002778 0.213870 -0.042857
					CHANNELS 3 Zrotation Yrotation Xrotation
					JOINT Head
					{
						OFFSET 0.005152 0.064970 0.051349
						CHANNELS 3 Zrotation Yrotation Xrotation
						End Site
						{
							OFFSET 0.000000 0.000000 0.000000
						}
					}
				}
				JOINT LeftShoulder
				{
					OFFSET 0.078845 0.121749 -0.034090
					CHANNELS 3 Zrotation Yrotation Xrotation
					JOINT LeftArm
					{
						OFFSET 0.090977 0.030469 -0.008868
						CHANNELS 3 Zrotation Yrotation Xrotation
						JOINT LeftForeArm
						{
							OFFSET 0.259612 -0.012772 -0.027456
							CHANNELS 3 Zrotation Yrotation Xrotation
							JOINT LeftHand
							{
								OFFSET 0.249234 0.008986 -0.001171
								CHANNELS 3 Zrotation Yrotation Xrotation
								End Site
								{
									OFFSET 0.000000 0.000000 0.000000
								}
							}
						}
					}
				}
				JOINT RightShoulder
				{
					OFFSET -0.081759 0.118833 -0.038615
					CHANNELS 3 Zrotation Yrotation Xrotation
					JOINT RightArm
					{
						OFFSET -0.096012 0.032551 -0.009143
						CHANNELS 3 Zrotation Yrotation Xrotation
						JOINT RightForeArm
						{
							OFFSET -0.253742 -0.013329 -0.021401
							CHANNELS 3 Zrotation Yrotation Xrotation
							JOINT RightHand
							{
								OFFSET -0.255298 0.007772 -0.005559
								CHANNELS 3 Zrotation Yrotation Xrotation
								End Site
								{
									OFFSET 0.000000 0.000000 0.000000
								}
							}
						}
					}
				}
			}
		}
	}
}
MOTION
Frames: 17
Frame Time: 0.050000
-1.567969 0.923333 0.357864 1.070065 3.079010 7.229101 19.327616 1.748658 -34.617972 -15.135193 4.720531 32.183169 10.823883 22.043728 13.160951 0.000000 0.000000 0.000000 -14.435261 -0.316197 -22.591585 12.267769 -3.397480 24.185657 -11.910715 -26.554795 11.259688 0.000000 0.000000 0.000000 -4.695906 -0.385639 41.173020 4.900259 -0.690030 -20.536028 -0.419644 1.964515 28.915665 -9.900827 7.181640 -34.136631 0.000000 0.000000 0.000000 -36.243583 -6.140758 0.253977 -23.635592 -16.616168 -1.255833 -0.425563 -36.247930 1.514828 0.000000 0.000000 0.000000 14.229788 15.415010 7.833981 37.404649 17.400487 -0.936668 -5.503174 29.690614 -0.068727 0.000000 0.000000 0.000000 
-1.566802 0.935531 0.361404 1.088116 5.616061 7.185475 15.852864 0.374256 -32.240285 -18.668486 5.866260 33.833881 15.451255 28.841518 13.006736 0.000000 0.000000 0.000000 -13.163368 -0.182937 -19.147279 10.567360 -2.753780 20.527367 -12.727728 -27.457315 13.002805 0.000000 0.000000 0.000000 -5.285588 -0.460942 38.256696 5.375167 -0.631081 -22.437819 -0.141133 5.354293 30.624450 -7.995347 7.108364 -33.086903 0.000000 0.000000 0.000000 -36.875954 -6.025512 -2.441418 -25.692898 -12.885245 -1.379382 -4.253621 -33.847043 2.407771 0.000000 0.000000 0.000000 16.048318 14.467947 8.786597 38.651927 15.616649 -1.834658 -3.502019 29.186758 0.561711 0.000000 0.000000 0.000000 
-1.560408 0.941862 0.367414 0.940163 9.834355 6.542485 12.128525 -0.930797 -30.602046 -18.991046 5.329873 35.629078 15.825137 29.669264 11.859085 0.000000 0.000000 0.000000 -11.806986 -0.120883 -14.788006 9.862132 -2.527768 16.679451 -14.383921 -29.665753 14.350365 0.000000 0.000000 0.000000 -4.816179 -1.057985 35.534580 5.245381 -0.519862 -22.518190 -0.522457 6.285247 31.207034 -6.115240 6.701703 -32.510611 0.000000 0.000000 0.000000 -33.817846 -4.491417 -4.715469 -31.366910 -10.266228 -1.768931 -6.544643 -32.722961 2.816636 0.000000 0.000000 0.000000 16.109191 13.248954 8.878028 43.356195 15.101575 -2.024554 -4.412023 26.992066 0.446602 0.000000 0.000000 0.000000 
-1.549207 0.943443 0.376340 0.156945 13.040204 5.545420 8.993496 -1.547684 -26.399837 -16.695641 3.582922 33.281582 15.710393 29.491952 11.479626 0.000000 0.000000 0.000000 -10.248527 -0.023434 -11.342678 9.057641 -2.398043 15.409532 -14.787761 -30.101075 14.765096 0.000000 0.000000 0.000000 -4.760778 -1.278824 33.028567 3.927152 -0.206198 -20.914711 0.943024 6.854555 30.482964 -2.861413 5.450084 -30.054288 0.000000 0.000000 0.000000 -31.991348 -3.381486 -6.275309 -36.243550 -7.411021 -2.462504 -6.998980 -30.452529 2.583570 0.000000 0.000000 0.000000 15.911707 11.586718 8.386305 46.413466 15.419479 -1.694860 -3.342169 26.479434 0.725509 0.000000 0.000000 0.000000 
-1.533508 0.943815 0.386648 -1.180784 14.976410 4.951622 7.487059 -1.569953 -22.607800 -14.233009 2.268726 29.230598 14.162009 27.229058 11.010852 0.000000 0.000000 0.000000 -9.150784 0.025580 -11.468897 9.276701 -2.936824 18.511513 -14.919946 -29.929508 15.642587 0.000000 0.000000 0.000000 -5.546909 -1.055018 30.582909 5.008231 -0.470013 -20.757306 0.764918 7.502976 31.967148 -1.481769 5.067853 -30.099701 0.000000 0.000000 0.000000 -31.201972 -1.699828 -8.075840 -38.094395 -5.615996 -3.014033 -7.188347 -28.968177 2.391701 0.000000 0.000000 0.000000 16.474790 10.377648 8.326389 48.862146 15.130215 -1.884816 -5.127830 27.508319 0.542736 0.000000 0.000000 0.000000 
-1.514720 0.944074 0.396483 -2.286281 18.456292 3.627859 6.308076 -1.381753 -17.788639 -12.508951 1.313652 24.483500 13.157010 25.464379 6.174301 0.000000 0.000000 0.000000 -9.150870 -0.145633 -12.244287 9.509085 -4.296424 25.161133 -14.711478 -28.292029 19.115262 0.000000 0.000000 0.000000 -5.228057 -1.387015 29.547856 5.341610 -0.586295 -19.448079 1.379991 5.982104 31.357162 -2.647963 5.681755 -28.386198 0.000000 0.000000 0.000000 -33.130426 -1.973909 -8.728293 -37.941522 -4.550585 -3.049447 -7.790752 -26.039130 2.309839 0.000000 0.000000 0.000000 16.394377 8.549878 7.361432 50.204251 14.424115 -2.017008 -4.064585 28.474638 0.900953 0.000000 0.000000 0.000000 
-1.495202 0.946656 0.404987 -3.188165 21.833478 2.229954 5.238272 -1.125881 -13.590888 -9.929639 0.470852 21.281872 11.888645 22.820786 3.838111 0.000000 0.000000 0.000000 -9.812933 -0.650799 -17.121826 10.196194 -7.415884 36.424221 -14.167516 -26.909268 20.181640 0.000000 0.000000 0.000000 -5.652204 -1.682415 30.277948 6.846660 -0.823771 -21.597871 0.853910 4.263887 32.596211 -1.750639 5.285833 -28.686080 0.000000 0.000000 0.000000 -34.612220 -0.777950 -10.098968 -37.066250 -3.956705 -3.105531 -9.154134 -25.372209 2.569177 0.000000 0.000000 0.000000 18.077086 7.054121 7.051359 50.569474 14.534564 -2.354074 -6.000915 31.080883 0.760393 0.000000 0.000000 0.000000 
-1.476759 0.950457 0.413356 -4.299345 23.996113 1.914512 5.270552 -0.924055 -10.898990 -9.045738 0.310453 17.510301 11.682802 21.682350 1.476818 0.000000 0.000000 0.000000 -8.153002 -0.860375 -23.679205 9.261533 -8.747227 42.366120 -10.649706 -22.126470 14.603251 0.000000 0.000000 0.000000 -5.409715 -1.850035 29.464628 7.260507 -0.917720 -21.563827 0.563947 3.212299 32.423175 -3.578538 6.237533 -26.308635 0.000000 0.000000 0.000000 -34.013184 -0.936650 -9.957654 -37.948827 -3.371688 -3.310753 -8.215416 -25.969932 2.383018 0.000000 0.000000 0.000000 18.916472 6.053212 6.745034 51.671392 13.761610 -2.650754 -5.587856 32.480497 1.021069 0.000000 0.000000 0.000000 
-1.458756 0.952572 0.422848 -5.280166 27.074572 1.748602 4.723199 -0.809924 -9.000155 -7.115910 -0.056800 15.389478 10.226500 18.514332 0.326551 0.000000 0.000000 0.000000 -6.269999 -1.081384 -28.653399 9.783239 -8.836870 39.522552 -10.660642 -21.656122 14.244967 0.000000 0.000000 0.000000 -4.083596 -2.455755 29.382928 7.048982 -0.791211 -21.689711 -0.305827 1.524271 31.622676 -3.777312 6.298622 -25.730273 0.000000 0.000000 0.000000 -34.035038 -0.643972 -10.211152 -36.902600 -4.019751 -2.966737 -7.739213 -26.678566 2.323244 0.000000 0.000000 0.000000 19.446254 5.023951 6.316654 52.509668 12.977727 -2.963643 -4.821157 33.207193 1.347193 0.000000 0.000000 0.000000 
-1.440581 0.951434 0.434907 -5.966920 30.886390 1.083493 3.984414 -0.674624 -7.045384 -5.698452 -0.331295 14.201883 9.306307 14.852986 -3.311918 0.000000 0.000000 0.000000 -4.538798 -1.509996 -32.904276 10.067704 -7.567640 32.529270 -9.677665 -18.874629 15.766224 0.000000 0.000000 0.000000 -3.180223 -3.420662 31.299023 6.561317 -0.515454 -23.402933 -0.341176 0.482041 31.718587 -3.810027 6.430811 -25.882029 0.000000 0.000000 0.000000 -34.371254 -0.922267 -10.671732 -35.341111 -4.772140 -2.433306 -7.970057 -28.773035 2.499863 0.000000 0.000000 0.000000 18.343663 3.402991 5.376721 54.800859 11.673324 -3.281227 -3.387239 33.336277 1.907209 0.000000 0.000000 0.000000 
-1.421450 0.943935 0.450434 -6.051676 34.308848 0.919445 3.345515 -0.588352 -5.915013 -5.211738 -0.638645 15.561986 9.525205 13.053900 -6.286480 0.000000 0.000000 0.000000 -2.906726 -1.859392 -35.857781 9.626231 -5.172085 22.654144 -9.631409 -17.337776 19.117966 0.000000 0.000000 0.000000 -3.226375 -3.772266 31.450785 5.922360 -0.280839 -23.454835 -0.707434 -0.821955 30.880591 -4.807994 7.005653 -26.336353 0.000000 0.000000 0.000000 -32.379257 -0.592811 -10.460597 -34.693018 -7.232072 -1.755669 -8.174230 -29.432839 2.516820 0.000000 0.000000 0.000000 20.211559 1.926872 5.110166 54.172184 9.935316 -4.328421 -1.081281 32.869532 2.530429 0.000000 0.000000 0.000000 
-1.400933 0.932304 0.469592 -6.162835 38.496688 0.040755 3.138633 -0.511914 -4.617794 -5.229565 -1.174354 18.752270 9.713802 9.971684 -10.298395 0.000000 0.000000 0.000000 -1.863763 -2.358607 -37.000603 7.902028 -2.893575 12.814541 -8.232923 -13.663913 22.941287 0.000000 0.000000 0.000000 -3.160258 -4.560565 32.796573 4.823407 0.073313 -24.082886 -0.671458 -2.001723 30.840957 -5.729197 7.605312 -24.750581 0.000000 0.000000 0.000000 -30.693552 -1.442642 -9.760260 -34.171762 -10.057835 -0.985829 -8.791186 -31.057257 2.709362 0.000000 0.000000 0.000000 21.497016 0.857784 5.079932 54.911916 8.467747 -5.217629 -0.620406 33.173504 2.835785 0.000000 0.000000 0.000000 
-1.378945 0.915595 0.492396 -6.683323 42.767548 -0.809867 3.617177 -0.542779 -4.016374 -5.557398 -1.949157 22.768574 11.392566 9.013082 -14.947635 0.000000 0.000000 0.000000 -1.019932 -3.150484 -38.743017 6.652606 -1.813617 6.507857 -8.502599 -12.821085 27.300969 0.000000 0.000000 0.000000 -3.471237 -5.293078 34.084185 4.111450 0.343758 -24.821244 -0.166671 -3.218937 31.395593 -5.703912 7.744463 -26.506674 0.000000 0.000000 0.000000 -27.715083 -2.704941 -8.278049 -34.775425 -14.333204 -0.071696 -8.363809 -33.060693 2.591428 0.000000 0.000000 0.000000 22.040456 1.788290 6.077076 55.000842 8.575225 -5.355146 -1.294633 33.290976 2.635240 0.000000 0.000000 0.000000 
-1.356069 0.896839 0.517812 -7.505377 47.878894 -2.427922 4.735358 -0.689172 -3.896797 -5.871840 -3.313070 28.152118 12.860507 5.583373 -21.301755 0.000000 0.000000 0.000000 -0.558235 -4.460893 -40.598424 6.155841 -1.699166 5.856198 -8.583588 -11.992283 29.748853 0.000000 0.000000 0.000000 -3.748416 -6.983633 37.475223 3.153029 0.627068 -25.005795 0.456704 -3.282464 30.837873 -4.823444 7.462045 -24.943740 0.000000 0.000000 0.000000 -25.650732 -3.827717 -7.518463 -34.263093 -19.031258 1.118842 -7.815326 -33.905499 2.316088 0.000000 0.000000 0.000000 20.208113 1.526415 5.850939 57.829731 7.796675 -5.306776 -1.137264 34.191749 2.936236 0.000000 0.000000 0.000000 
-1.332210 0.875239 0.545198 -9.741314 51.409154 -4.365970 6.714791 -1.002517 -4.441518 -7.000138 -4.809654 33.986816 14.250389 4.598282 -25.684123 0.000000 0.000000 0.000000 0.627724 -5.580828 -43.466511 5.998148 -2.249880 10.347722 -9.657761 -13.102118 28.485674 0.000000 0.000000 0.000000 -3.908286 -8.756615 40.762224 3.942416 0.547019 -24.118066 0.400645 -0.836545 29.952808 -3.918357 7.348311 -25.437902 0.000000 0.000000 0.000000 -23.492161 -7.337499 -5.791289 -32.341765 -22.541786 1.982415 -7.142517 -35.375430 1.931867 0.000000 0.000000 0.000000 20.350139 2.585392 7.109025 57.549651 9.237731 -4.521429 -1.962415 34.322908 2.701461 0.000000 0.000000 0.000000 
-1.308042 0.855271 0.573364 -11.984554 54.707020 -5.654253 8.994830 -1.435560 -6.523313 -10.576765 -6.352419 41.709951 14.964206 5.480250 -28.389652 0.000000 0.000000 0.000000 2.661711 -6.549489 -46.884884 5.593255 -2.848966 14.717069 -10.563155 -14.048841 28.467347 0.000000 0.000000 0.000000 -5.168028 -10.372214 44.302577 3.655366 0.656296 -23.480700 2.421790 0.950090 29.406002 -2.207306 6.712568 -25.184636 0.000000 0.000000 0.000000 -23.015883 -10.972882 -4.302377 -27.648446 -26.110920 2.382054 -3.745301 -36.887073 0.810142 0.000000 0.000000 0.000000 19.378936 4.242087 8.170672 58.532050 10.490734 -3.626883 -4.305193 33.962259 1.950988 0.000000 0.000000 0.000000 
-1.283296 0.832471 0.601866 -15.024254 56.890376 -6.390986 12.478358 -2.183604 -10.280423 -15.920499 -7.053806 49.523603 14.923848 7.481051 -30.271782 0.000000 0.000000 0.000000 6.574693 -7.657720 -53.587339 3.735813 -3.680107 23.383280 -10.035699 -13.805806 27.728033 0.000000 0.000000 0.000000 -5.758662 -12.503972 48.174951 3.830142 0.618631 -23.625434 3.253191 3.041532 30.014068 -1.816872 6.818776 -27.696275 0.000000 0.000000 0.000000 -21.737841 -13.499379 -3.074479 -23.624444 -30.602140 2.408516 0.890992 -37.244372 -0.831547 0.000000 0.000000 0.000000 16.228753 6.517589 8.541197 60.799031 12.385298 -1.541038 -4.458178 34.620857 1.868034 0.000000 0.000000 0.000000 
